<?xml version="1.0" encoding="UTF-8"?>
<svg width="65px" height="36px" viewBox="0 0 65 36" version="1.1" xmlns="http://www.w3.org/2000/svg" xmlns:xlink="http://www.w3.org/1999/xlink">
    <!-- Generator: Sketch 52.5 (67469) - http://www.bohemiancoding.com/sketch -->
    <title>Combined Shape</title>
    <desc>Created with Sketch.</desc>
    <g id="Page-1" stroke="none" stroke-width="1" fill="none" fill-rule="evenodd">
        <g id="Artboard" transform="translate(-688.000000, -64.000000)" fill="#FFFFFF">
            <path d="M704.452988,93.1724138 L712.154387,93.1724138 L708.303688,100 L704.452988,93.1724138 Z M702.951103,90.5094549 L699.077818,83.6418242 L717.529557,83.6418242 L713.656273,90.5094549 L702.951103,90.5094549 Z M697.575933,80.9788654 L693.702649,74.1112347 L722.904727,74.1112347 L719.031443,80.9788654 L697.575933,80.9788654 Z M692.200763,71.4482759 L688,64 L728.607375,64 L724.406612,71.4482759 L692.200763,71.4482759 Z M736.448799,71.4482759 L728.047274,71.4482759 L732.248037,64 L736.448799,71.4482759 Z M737.950685,74.1112347 L741.823969,80.9788654 L722.672104,80.9788654 L726.545388,74.1112347 L737.950685,74.1112347 Z M743.325855,83.6418242 L747.199139,90.5094549 L717.296934,90.5094549 L721.170218,83.6418242 L743.325855,83.6418242 Z M748.701025,93.1724138 L752.551724,100 L711.944349,100 L715.795048,93.1724138 L748.701025,93.1724138 Z" id="Combined-Shape"></path>
        </g>
    </g>
</svg>